<?xml version="1.0" encoding="UTF-8"?><svg xmlns="http://www.w3.org/2000/svg" viewBox="0 0 154 36"><defs><style>.d{fill:#3a211c;}</style></defs><g id="a"/><g id="b"><g id="c"><g><g><path class="d" d="M58.3,36c-2.83,0-5.32-.53-7.47-1.6-2.15-1.07-3.83-2.55-5.04-4.46-1.21-1.91-1.81-4.1-1.81-6.58s.6-4.71,1.81-6.6c1.21-1.89,2.89-3.37,5.04-4.44,2.15-1.07,4.64-1.6,7.47-1.6s5.32,.53,7.47,1.6c2.15,1.07,3.83,2.55,5.04,4.44,1.21,1.89,1.81,4.09,1.81,6.6s-.6,4.68-1.81,6.58c-1.21,1.91-2.89,3.39-5.04,4.46-2.15,1.07-4.64,1.6-7.47,1.6Zm0-2.21c2.41,0,4.51-.43,6.27-1.3,1.77-.87,3.14-2.08,4.11-3.64s1.46-3.39,1.46-5.5-.49-3.94-1.46-5.5-2.34-2.77-4.11-3.64c-1.77-.87-3.86-1.3-6.27-1.3s-4.47,.43-6.25,1.3c-1.78,.87-3.16,2.08-4.13,3.64-.97,1.56-1.46,3.39-1.46,5.5s.49,3.94,1.46,5.5c.97,1.56,2.35,2.77,4.13,3.64,1.78,.87,3.87,1.3,6.25,1.3Z"/><path class="d" d="M76.46,25h2.47c.24,1.76,.92,3.31,2.05,4.63,1.13,1.33,2.64,2.35,4.51,3.07,1.87,.72,4.01,1.08,6.43,1.08,3.65,0,6.57-.66,8.75-1.97,2.18-1.31,3.27-3.11,3.27-5.39,0-1.67-.71-2.97-2.14-3.9-1.43-.92-3.88-1.57-7.36-1.95l-5.61-.61c-4.09-.43-7-1.36-8.73-2.77-1.72-1.41-2.58-3.23-2.58-5.46,0-1.91,.57-3.55,1.72-4.94,1.15-1.39,2.74-2.45,4.77-3.2,2.03-.75,4.39-1.13,7.07-1.13s5.22,.42,7.36,1.26c2.14,.84,3.83,2.01,5.08,3.51,1.25,1.5,1.94,3.25,2.05,5.24h-2.47c-.18-1.59-.8-2.96-1.86-4.11-1.06-1.15-2.46-2.06-4.2-2.71-1.74-.65-3.74-.97-6.01-.97-3.36,0-6.04,.62-8.04,1.86-2,1.24-3,2.97-3,5.2,0,1.73,.71,3.06,2.14,3.98,1.43,.92,3.81,1.57,7.14,1.95l5.35,.61c2.83,.32,5.11,.79,6.85,1.43,1.74,.64,3,1.49,3.78,2.58,.78,1.08,1.17,2.43,1.17,4.05,0,2.02-.6,3.75-1.81,5.2-1.21,1.44-2.9,2.55-5.08,3.31-2.18,.76-4.73,1.15-7.64,1.15s-5.46-.46-7.73-1.39c-2.27-.92-4.08-2.22-5.43-3.88-1.36-1.66-2.11-3.57-2.25-5.74Z"/><path class="d" d="M124.66,36c-2.8,0-5.27-.53-7.4-1.6-2.14-1.07-3.8-2.55-4.99-4.46-1.19-1.91-1.79-4.1-1.79-6.58s.57-4.71,1.7-6.6c1.13-1.89,2.7-3.37,4.71-4.44,2-1.07,4.33-1.6,6.98-1.6s4.82,.55,6.76,1.64c1.94,1.1,3.46,2.62,4.55,4.57s1.63,4.21,1.63,6.78h-24.7v-2.08h24.12l-1.9,1.3c-.09-2.02-.58-3.78-1.46-5.28-.88-1.5-2.1-2.66-3.64-3.49-1.55-.82-3.34-1.23-5.37-1.23-2.21,0-4.13,.43-5.77,1.3-1.63,.87-2.9,2.08-3.8,3.64s-1.35,3.39-1.35,5.5,.49,3.94,1.46,5.5c.97,1.56,2.33,2.77,4.09,3.64,1.75,.87,3.81,1.3,6.16,1.3,2.18,0,4.23-.37,6.14-1.13,1.91-.75,3.67-1.75,5.26-2.99v2.21c-1.53,1.27-3.33,2.27-5.39,3.01-2.06,.74-4.06,1.1-6.01,1.1Z"/><path class="d" d="M142.16,2.14h2.39V35.48h-2.39V2.14Z"/><path class="d" d="M151.61,2.14h2.39V35.48h-2.39V2.14Z"/></g><g><path class="d" d="M34.09,22.56c-.48,1.97-1.29,3.73-2.43,5.3-1.14,1.57-2.55,2.86-4.24,3.89-1.68,1.02-3.59,1.69-5.73,2.01-2.14,.31-4.47,.2-7-.36s-4.84-1.46-6.85-2.7c-2.01-1.24-3.67-2.75-4.97-4.53-1.3-1.78-2.16-3.78-2.59-6-.43-2.22-.35-4.6,.22-7.14s1.55-4.72,2.92-6.55c1.37-1.83,3.03-3.28,5-4.34C10.38,1.08,12.55,.41,14.94,.13c2.39-.28,4.9-.12,7.55,.46,3.31,.72,6.08,1.89,8.33,3.49,2.25,1.6,3.92,3.48,5.03,5.65,1.11,2.17,1.56,4.47,1.37,6.91l-5.78-1.27c.02-1.56-.36-3.01-1.16-4.34-.8-1.33-1.95-2.47-3.45-3.42-1.5-.95-3.33-1.66-5.49-2.13-2.53-.55-4.83-.58-6.89-.07-2.06,.51-3.8,1.51-5.21,3.01-1.41,1.49-2.39,3.45-2.95,5.88-.55,2.42-.5,4.62,.15,6.6,.65,1.98,1.83,3.64,3.55,4.99,1.71,1.35,3.88,2.31,6.5,2.89s4.84,.62,6.93,.19c2.09-.43,3.85-1.28,5.29-2.55,1.44-1.27,2.43-2.89,2.97-4.87l2.44,1.02Z"/><polygon class="d" points="22.02 20.34 23.22 16.17 39.33 20.62 34.91 36 30.74 34.85 33.79 21.7 34.6 23.81 22.02 20.34"/></g></g></g></g></svg>